<svg width="655" height="655" viewBox="0 0 655 655" fill="none" xmlns="http://www.w3.org/2000/svg">
<rect width="655" height="655" fill="white"/>
<path fill-rule="evenodd" clip-rule="evenodd" d="M522.635 96.8854L560.571 142.735C568.485 152.015 573.125 164.296 573.125 177.396V518.542C573.125 548.562 548.562 573.125 518.542 573.125H136.458C106.437 573.125 81.875 548.562 81.875 518.542V177.396C81.875 164.296 86.5146 152.015 94.4292 142.735L132.092 96.8854C139.733 87.6063 150.923 81.875 163.75 81.875H491.25C504.077 81.875 515.267 87.6063 522.635 96.8854ZM484.7 136.458H170.3L148.467 162.931H506.806L484.7 136.458ZM136.458 518.542V218.333H518.542V518.542H136.458ZM287.927 272.917H367.073V354.792H436.667L327.5 463.958L218.333 354.792H287.927V272.917Z" fill="black" fill-opacity="0.54"/>
</svg>
